<?xml version="1.0" ?><!DOCTYPE svg  PUBLIC '-//W3C//DTD SVG 1.1//EN'  'http://www.w3.org/Graphics/SVG/1.1/DTD/svg11.dtd'><svg enable-background="new 0 0 96 96" height="96px" id="tag" version="1.1" viewBox="0 0 96 96" width="96px" xml:space="preserve" xmlns="http://www.w3.org/2000/svg" xmlns:xlink="http://www.w3.org/1999/xlink"><path d="M12,12h33.941l37.256,37.077c1.586,1.586,1.637,3.93,0.117,5.45L54.912,82.885c-1.561,1.56-4.123,1.512-5.715-0.08  L12.056,45.83L11.833,12 M4,4l0.06,45.137L43.54,88.528c4.689,4.688,12.341,4.702,17.029,0.013l28.402-28.424  c4.689-4.688,4.57-11.998-0.117-16.687L49.256,4H4L4,4z"/><path d="M34,32c1.103,0,2,0.897,2,2s-0.897,2-2,2s-2-0.897-2-2S32.897,32,34,32 M34,24c-5.523,0-10,4.477-10,10s4.477,10,10,10  s10-4.477,10-10S39.523,24,34,24L34,24z"/></svg>