<?xml version="1.0" encoding="UTF-8" standalone="no"?>
<svg
   xmlns:dc="http://purl.org/dc/elements/1.1/"
   xmlns:cc="http://creativecommons.org/ns#"
   xmlns:rdf="http://www.w3.org/1999/02/22-rdf-syntax-ns#"
   xmlns:svg="http://www.w3.org/2000/svg"
   xmlns="http://www.w3.org/2000/svg"
   xml:space="preserve"
   enable-background="new 0 0 97 97"
   viewBox="0 0 97 97"
   height="97px"
   width="97px"
   y="0px"
   x="0px"
   id="Layer_1"
   version="1.1"><metadata
   id="metadata842"><rdf:RDF><cc:Work
       rdf:about=""><dc:format>image/svg+xml</dc:format><dc:type
         rdf:resource="http://purl.org/dc/dcmitype/StillImage" /><dc:title></dc:title></cc:Work></rdf:RDF></metadata><defs
   id="defs840" />
<g
   style="fill:#5bbc0e;fill-opacity:1"
   id="g835">
	<path
   id="path817"
   d="m 48.408203,2.5585938 c -1.5145,0 -3.029547,0.5769218 -4.185547,1.7324218 C 30.484131,18.025547 16.125907,32.385105 4.2871094,44.222656 c -2.311,2.313 -2.311,6.060094 0,8.371094 L 44.408203,92.710938 c 2.31,2.311 6.056141,2.310999 8.369141,0 L 92.710938,52.779297 c 2.310998,-2.311 2.310998,-6.060094 0,-8.371094 L 52.591797,4.2910156 c -1.155,-1.1555 -2.669094,-1.732422 -4.183594,-1.7324218 z"
   style="fill:#5bbc0e;fill-opacity:1" /><path
   id="path833"
   d="m 43.550781,20.039062 h 9.898438 v 23.511719 h 23.511719 v 9.898438 H 53.449219 V 76.960938 H 43.550781 V 53.449219 H 20.039062 v -9.898438 h 23.511719 z"
   style="fill:#ffffff;fill-opacity:1" />
</g>
</svg>