<?xml version="1.0" encoding="UTF-8" standalone="no"?>
<svg
   xmlns:dc="http://purl.org/dc/elements/1.1/"
   xmlns:cc="http://creativecommons.org/ns#"
   xmlns:rdf="http://www.w3.org/1999/02/22-rdf-syntax-ns#"
   xmlns:svg="http://www.w3.org/2000/svg"
   xmlns="http://www.w3.org/2000/svg"
   xmlns:sodipodi="http://sodipodi.sourceforge.net/DTD/sodipodi-0.dtd"
   xmlns:inkscape="http://www.inkscape.org/namespaces/inkscape"
   id="Layer_1"
   style="enable-background:new 0 0 64 64;"
   version="1.1"
   viewBox="0 0 64 64"
   xml:space="preserve"
   sodipodi:docname="sc-actions-git-merge.svg"
   inkscape:version="0.92.5 (2060ec1f9f, 2020-04-08)"><metadata
     id="metadata17"><rdf:RDF><cc:Work
         rdf:about=""><dc:format>image/svg+xml</dc:format><dc:type
           rdf:resource="http://purl.org/dc/dcmitype/StillImage" /><dc:title /></cc:Work></rdf:RDF></metadata><defs
     id="defs15" /><sodipodi:namedview
     pagecolor="#ffffff"
     bordercolor="#666666"
     borderopacity="1"
     objecttolerance="10"
     gridtolerance="10"
     guidetolerance="10"
     inkscape:pageopacity="0"
     inkscape:pageshadow="2"
     inkscape:window-width="1520"
     inkscape:window-height="871"
     id="namedview13"
     showgrid="false"
     inkscape:zoom="7.375"
     inkscape:cx="21.656036"
     inkscape:cy="43.351845"
     inkscape:window-x="1360"
     inkscape:window-y="0"
     inkscape:window-maximized="1"
     inkscape:current-layer="Layer_1"
     showguides="true"
     inkscape:guide-bbox="true"><sodipodi:guide
       position="34.228762,28.763666"
       orientation="0,1"
       id="guide825"
       inkscape:locked="false" /></sodipodi:namedview><style
     type="text/css"
     id="style2">
	.st0{fill:#134563;}
</style><ellipse
     style="fill:#000000;fill-opacity:1;stroke:none;stroke-width:1.12222207;stroke-opacity:1"
     id="path820"
     cx="22.341137"
     cy="10.250601"
     rx="7.988699"
     ry="7.9126163" /><path
     class="st0"
     d="m 22.375274,47.107401 c -4.4,0 -7.900001,3.5 -7.900001,7.9 0,4.4 3.500001,7.9 7.900001,7.9 4.4,0 7.9,-3.5 7.9,-7.9 0,-4.3 -3.5,-7.9 -7.9,-7.9 z m 0,12.9 c -2.7,0 -4.9,-2.2 -4.9,-4.9 0,-2.7 2.2,-4.9 4.9,-4.9 2.7,0 4.9,2.2 4.9,4.9 0,2.6 -2.2,4.9 -4.9,4.9 z"
     id="Fill-61"
     style="fill:#000000;fill-opacity:1"
     inkscape:connector-curvature="0" /><path
     class="st0"
     d="m 48.885702,40.963499 c -4.4,0 -7.9,3.5 -7.9,7.9 0,4.4 3.5,7.9 7.9,7.9 4.4,0 7.9,-3.5 7.9,-7.9 0,-4.4 -3.6,-7.9 -7.9,-7.9 z m 0,12.8 c -2.7,0 -4.9,-2.2 -4.9,-4.9 0,-2.7 2.2,-4.9 4.9,-4.9 2.7,0 4.9,2.2 4.9,4.9 0,2.7 -2.2,4.9 -4.9,4.9 z"
     id="Fill-62"
     style="fill:#000000;fill-opacity:1"
     inkscape:connector-curvature="0" /><path
     style="fill:none;stroke:#000000;stroke-width:3.5;stroke-linecap:butt;stroke-linejoin:miter;stroke-miterlimit:4;stroke-dasharray:none;stroke-opacity:1"
     d="M 22.395289,48.423548 V 16.304121"
     id="path833"
     inkscape:connector-curvature="0" /><path
     style="fill:none;stroke:#000000;stroke-width:3.5;stroke-linecap:butt;stroke-linejoin:miter;stroke-miterlimit:4;stroke-dasharray:none;stroke-opacity:1"
     d="m 22.389473,17.793651 c 0,0 -0.02616,12.28413 9.47938,12.28413 9.505544,0 3.556545,-0.06298 11.027554,-0.06298 7.471008,0 6.052003,12.101989 6.052003,12.101989"
     id="path835"
     inkscape:connector-curvature="0"
     sodipodi:nodetypes="czzc" /></svg>