<?xml version="1.0" encoding="UTF-8" standalone="no"?>
<!-- Generator: Adobe Illustrator 16.0.0, SVG Export Plug-In . SVG Version: 6.00 Build 0)  -->

<svg
   xmlns:dc="http://purl.org/dc/elements/1.1/"
   xmlns:cc="http://creativecommons.org/ns#"
   xmlns:rdf="http://www.w3.org/1999/02/22-rdf-syntax-ns#"
   xmlns:svg="http://www.w3.org/2000/svg"
   xmlns="http://www.w3.org/2000/svg"
   xmlns:sodipodi="http://sodipodi.sourceforge.net/DTD/sodipodi-0.dtd"
   xmlns:inkscape="http://www.inkscape.org/namespaces/inkscape"
   version="1.1"
   id="Layer_1"
   x="0px"
   y="0px"
   width="97px"
   height="97px"
   viewBox="0 0 97 97"
   enable-background="new 0 0 97 97"
   xml:space="preserve"
   sodipodi:docname="sc-actions-git-status-unknown.svg"
   inkscape:version="0.92.5 (2060ec1f9f, 2020-04-08)"
   inkscape:export-filename="/home/hamed/dev/kde-git/icons/48-apps-kde_actions.png"
   inkscape:export-xdpi="50.150002"
   inkscape:export-ydpi="50.150002"><metadata
   id="metadata842"><rdf:RDF><cc:Work
       rdf:about=""><dc:format>image/svg+xml</dc:format><dc:type
         rdf:resource="http://purl.org/dc/dcmitype/StillImage" /><dc:title></dc:title></cc:Work></rdf:RDF></metadata><defs
   id="defs840" /><sodipodi:namedview
   pagecolor="#ffffff"
   bordercolor="#666666"
   borderopacity="1"
   objecttolerance="10"
   gridtolerance="10"
   guidetolerance="10"
   inkscape:pageopacity="0"
   inkscape:pageshadow="2"
   inkscape:window-width="1516"
   inkscape:window-height="871"
   id="namedview838"
   showgrid="false"
   inkscape:zoom="5.6568542"
   inkscape:cx="0.053247464"
   inkscape:cy="48.004304"
   inkscape:window-x="1599"
   inkscape:window-y="0"
   inkscape:window-maximized="1"
   inkscape:current-layer="Layer_1"
   showguides="true"
   inkscape:guide-bbox="true"><sodipodi:guide
     position="48.260038,17.67767"
     orientation="1,0"
     id="guide837"
     inkscape:locked="false" /><sodipodi:guide
     position="64.877047,48.790368"
     orientation="0,1"
     id="guide839"
     inkscape:locked="false" /></sodipodi:namedview>
<g
   id="g835"
   style="fill:#f1a13d;fill-opacity:1">
	<path
   style="fill:#f1a13d;fill-opacity:1"
   d="m 48.408203,2.5585938 c -1.5145,0 -3.029547,0.5769218 -4.185547,1.7324218 C 30.484131,18.025547 16.125907,32.385105 4.2871094,44.222656 c -2.311,2.313 -2.311,6.060094 0,8.371094 L 44.408203,92.710938 c 2.31,2.311 6.056141,2.310999 8.369141,0 L 92.710938,52.779297 c 2.310998,-2.311 2.310998,-6.060094 0,-8.371094 L 52.591797,4.2910156 c -1.155,-1.1555 -2.669094,-1.732422 -4.183594,-1.7324218 z"
   id="path819" /><path
   style="fill:#ffffff;fill-opacity:1"
   d="m 47.15625,24.75 c 5.083333,0 8.958333,1.041667 11.625,3.125 2.666667,2.0625 4,5.083333 4,9.0625 0,2.041667 -0.40625,3.875 -1.21875,5.5 -0.8125,1.604167 -2.197917,3.333333 -4.15625,5.1875 l -2,1.78125 c -1.416667,1.291667 -2.34375,2.333333 -2.78125,3.125 -0.4375,0.770833 -0.65625,1.625 -0.65625,2.5625 V 56.5 H 40.6875 v -1.53125 c 0,-1.708333 0.34375,-3.21875 1.03125,-4.53125 0.6875,-1.333333 2.135417,-3.020833 4.34375,-5.0625 l 2,-1.8125 C 49.25,42.479167 50.114583,41.458333 50.65625,40.5 51.21875,39.541667 51.5,38.583333 51.5,37.625 51.5,36.166667 51,35.03125 50,34.21875 c -1,-0.833333 -2.395833,-1.25 -4.1875,-1.25 -1.6875,0 -3.510417,0.354167 -5.46875,1.0625 -1.958333,0.6875 -4,1.71875 -6.125,3.09375 v -9.8125 c 2.520833,-0.875 4.822917,-1.520833 6.90625,-1.9375 2.083333,-0.416667 4.09375,-0.625 6.03125,-0.625 z"
   id="path817" /><path
   style="fill:#ffffff;fill-opacity:1"
   d="M 40.6875,61.125 H 51.96875 V 72.25 H 40.6875 Z"
   id="path833" />
</g>
</svg>