<?xml version="1.0" encoding="UTF-8" standalone="no"?>
<svg
   xmlns:dc="http://purl.org/dc/elements/1.1/"
   xmlns:cc="http://creativecommons.org/ns#"
   xmlns:rdf="http://www.w3.org/1999/02/22-rdf-syntax-ns#"
   xmlns:svg="http://www.w3.org/2000/svg"
   xmlns="http://www.w3.org/2000/svg"
   xmlns:sodipodi="http://sodipodi.sourceforge.net/DTD/sodipodi-0.dtd"
   xmlns:inkscape="http://www.inkscape.org/namespaces/inkscape"
   id="svg8"
   version="1.1"
   viewBox="0 0 127 127"
   height="480"
   width="480"
   sodipodi:docname="sc-actions-diff-goto-next-diff.svg"
   inkscape:version="0.92.3 (2405546, 2018-03-11)">
  <sodipodi:namedview
     pagecolor="#ffffff"
     bordercolor="#666666"
     borderopacity="1"
     objecttolerance="10"
     gridtolerance="10"
     guidetolerance="10"
     inkscape:pageopacity="0"
     inkscape:pageshadow="2"
     inkscape:window-width="1526"
     inkscape:window-height="871"
     id="namedview8"
     showgrid="false"
     inkscape:zoom="0.98333333"
     inkscape:cx="456.81282"
     inkscape:cy="225.84526"
     inkscape:window-x="74"
     inkscape:window-y="0"
     inkscape:window-maximized="1"
     inkscape:current-layer="svg8" />
  <defs
     id="defs2" />
  <metadata
     id="metadata5">
    <rdf:RDF>
      <cc:Work
         rdf:about="">
        <dc:format>image/svg+xml</dc:format>
        <dc:type
           rdf:resource="http://purl.org/dc/dcmitype/StillImage" />
        <dc:title />
      </cc:Work>
    </rdf:RDF>
  </metadata>
  <rect
     id="rect10"
     width="122.02225"
     height="121.70833"
     x="2.6458333"
     y="2.6458349"
     style="fill:#cdd9bc;fill-opacity:1;stroke:none;stroke-width:1.00823843;stroke-miterlimit:4;stroke-dasharray:none;stroke-opacity:1"
     ry="0" />
  <g
     id="save"
     transform="matrix(5.0303447,0,0,5.0303447,3.1358636,8.1662083)">
    <path
       id="path3"
       d="m 11.2,16.6 c 0.4,0.5 1.2,0.5 1.6,0 l 6,-6.3 C 19.3,9.8 18.8,9 18,9 H 14 C 14,9 14.2,4.4 14,2 13.9,0.9 13.1,0 12,0 10.9,0 10.1,0.9 10,2 9.8,4.3 10,9 10,9 H 6 C 5.2,9 4.7,9.8 5.2,10.4 Z"
       inkscape:connector-curvature="0" />
    <path
       id="path5"
       d="M 19,19 H 5 c -1.1,0 -2,0.9 -2,2 v 0 c 0,0.6 0.4,1 1,1 h 16 c 0.6,0 1,-0.4 1,-1 v 0 c 0,-1.1 -0.9,-2 -2,-2 z"
       inkscape:connector-curvature="0"
       style="fill:#fa3e3e;fill-opacity:1" />
  </g>
</svg>
