<?xml version="1.0" encoding="UTF-8" standalone="no"?>
<svg
   xmlns:dc="http://purl.org/dc/elements/1.1/"
   xmlns:cc="http://creativecommons.org/ns#"
   xmlns:rdf="http://www.w3.org/1999/02/22-rdf-syntax-ns#"
   xmlns:svg="http://www.w3.org/2000/svg"
   xmlns="http://www.w3.org/2000/svg"
   xmlns:sodipodi="http://sodipodi.sourceforge.net/DTD/sodipodi-0.dtd"
   xmlns:inkscape="http://www.inkscape.org/namespaces/inkscape"
   width="480"
   height="480"
   viewBox="0 0 127 127"
   version="1.1"
   id="svg8"
   sodipodi:docname="sc-actions-git-push.svg"
   inkscape:version="0.92.5 (2060ec1f9f, 2020-04-08)">
  <sodipodi:namedview
     pagecolor="#ffffff"
     bordercolor="#666666"
     borderopacity="1"
     objecttolerance="10"
     gridtolerance="10"
     guidetolerance="10"
     inkscape:pageopacity="0"
     inkscape:pageshadow="2"
     inkscape:window-width="1192"
     inkscape:window-height="685"
     id="namedview8"
     showgrid="false"
     inkscape:zoom="0.49166667"
     inkscape:cx="32.542373"
     inkscape:cy="240"
     inkscape:window-x="1541"
     inkscape:window-y="114"
     inkscape:window-maximized="0"
     inkscape:current-layer="svg8" />
  <defs
     id="defs2" />
  <metadata
     id="metadata5">
    <rdf:RDF>
      <cc:Work
         rdf:about="">
        <dc:format>image/svg+xml</dc:format>
        <dc:type
           rdf:resource="http://purl.org/dc/dcmitype/StillImage" />
        <dc:title />
      </cc:Work>
    </rdf:RDF>
  </metadata>
  <g
     style="fill:#000000;fill-opacity:1"
     transform="matrix(5.0303447,0,0,-5.0303447,3.1358636,118.83379)"
     id="save">
    <path
       style="fill:#000000;fill-opacity:1"
       d="m 11.2,16.6 c 0.4,0.5 1.2,0.5 1.6,0 l 6,-6.3 C 19.3,9.8 18.8,9 18,9 H 14 C 14,9 14.2,4.4 14,2 13.9,0.9 13.1,0 12,0 10.9,0 10.1,0.9 10,2 9.8,4.3 10,9 10,9 H 6 C 5.2,9 4.7,9.8 5.2,10.4 Z"
       id="path3"
       inkscape:connector-curvature="0" />
    <path
       style="fill:#000000;fill-opacity:1"
       d="M 19,19 H 5 c -1.1,0 -2,0.9 -2,2 v 0 c 0,0.6 0.4,1 1,1 h 16 c 0.6,0 1,-0.4 1,-1 v 0 c 0,-1.1 -0.9,-2 -2,-2 z"
       id="path5"
       inkscape:connector-curvature="0" />
  </g>
</svg>
