<?xml version="1.0" ?><!DOCTYPE svg  PUBLIC '-//W3C//DTD SVG 1.1//EN'  'http://www.w3.org/Graphics/SVG/1.1/DTD/svg11.dtd'><svg enable-background="new 0 0 500 500" height="500px" id="Layer_1" version="1.1" viewBox="0 0 500 500" width="500px" xml:space="preserve" xmlns="http://www.w3.org/2000/svg" xmlns:xlink="http://www.w3.org/1999/xlink"><path clip-rule="evenodd" d="M210.01,144.888l0.178,0.265c4.1,3.275,6.637,8.358,6.637,13.992  c0,9.992-8.083,18.172-18.17,18.172H95.626c-20.079,0-36.343,16.262-36.343,36.341v70.146c0,9.992,8.181,18.172,18.173,18.172  c5.536,0,10.45-2.456,13.804-6.37c0.638-0.729,2.822-2.999,3.275-3.442c9.812-9.272,22.988-14.905,37.433-14.905  c30.077,0,54.513,24.435,54.513,54.514c0,30.078-24.437,54.513-54.513,54.513c-14.535,0-27.807-5.724-37.621-14.997  c-0.354-0.356-2.536-2.45-3.087-3.264c-3.354-3.904-8.358-6.453-13.982-6.453c-9.999,0-18.172,8.185-18.172,18.172l0.177,51.969  c0,20.078,16.264,36.34,36.343,36.34h308.908c20.078,0,36.341-16.262,36.341-36.34v-79.223c0-9.992-8.182-18.173-18.173-18.173  c-5.093,0-9.725,2.086-13.078,5.545l-3.547,3.816c-9.816,9.537-23.165,15.35-37.888,15.35c-30.078,0-54.513-24.436-54.513-54.514  S338.111,250,368.189,250c14.81,0,28.164,5.911,37.977,15.448l2.819,2.999c3.362,3.813,8.268,6.271,13.717,6.271  c9.991,0,18.173-8.181,18.173-18.168v-42.892c0-20.079-16.263-36.341-36.341-36.341H301.315c-9.986,0-18.168-8.181-18.168-18.172  c0-5.091,2.095-9.714,5.544-13.077c15.173-11.543,24.985-29.901,24.985-50.52c0-35.165-28.435-63.599-63.599-63.599  c-35.16,0-63.597,28.435-63.597,63.599C186.481,115.439,195.655,133.254,210.01,144.888z" fill="#010101" fill-rule="evenodd"/></svg>