<?xml version="1.0" encoding="UTF-8" standalone="no"?>
<!-- Generator: Adobe Illustrator 16.0.0, SVG Export Plug-In . SVG Version: 6.00 Build 0)  -->

<svg
   xmlns:dc="http://purl.org/dc/elements/1.1/"
   xmlns:cc="http://creativecommons.org/ns#"
   xmlns:rdf="http://www.w3.org/1999/02/22-rdf-syntax-ns#"
   xmlns:svg="http://www.w3.org/2000/svg"
   xmlns="http://www.w3.org/2000/svg"
   xmlns:sodipodi="http://sodipodi.sourceforge.net/DTD/sodipodi-0.dtd"
   xmlns:inkscape="http://www.inkscape.org/namespaces/inkscape"
   version="1.1"
   id="Layer_1"
   x="0px"
   y="0px"
   width="97px"
   height="97px"
   viewBox="0 0 97 97"
   enable-background="new 0 0 97 97"
   xml:space="preserve"
   sodipodi:docname="sc-actions-git-status-ignored.svg"
   inkscape:version="0.92.5 (2060ec1f9f, 2020-04-08)"
   inkscape:export-filename="/home/hamed/dev/kde-git/icons/48-apps-kde_actions.png"
   inkscape:export-xdpi="50.150002"
   inkscape:export-ydpi="50.150002"><metadata
   id="metadata842"><rdf:RDF><cc:Work
       rdf:about=""><dc:format>image/svg+xml</dc:format><dc:type
         rdf:resource="http://purl.org/dc/dcmitype/StillImage" /><dc:title></dc:title></cc:Work></rdf:RDF></metadata><defs
   id="defs840" /><sodipodi:namedview
   pagecolor="#ffffff"
   bordercolor="#666666"
   borderopacity="1"
   objecttolerance="10"
   gridtolerance="10"
   guidetolerance="10"
   inkscape:pageopacity="0"
   inkscape:pageshadow="2"
   inkscape:window-width="1516"
   inkscape:window-height="871"
   id="namedview838"
   showgrid="false"
   inkscape:zoom="5.6568542"
   inkscape:cx="-33.249141"
   inkscape:cy="48.004304"
   inkscape:window-x="1599"
   inkscape:window-y="0"
   inkscape:window-maximized="1"
   inkscape:current-layer="Layer_1"
   showguides="true"
   inkscape:guide-bbox="true" />
<g
   id="g835"
   style="fill:#f0c533;fill-opacity:1">
	<path
   style="fill:#f0c533;fill-opacity:1"
   d="m 48.408203,2.5585938 c -1.5145,0 -3.029547,0.5769218 -4.185547,1.7324218 C 30.484131,18.025547 16.125907,32.385105 4.2871094,44.222656 c -2.311,2.313 -2.311,6.060094 0,8.371094 L 44.408203,92.710938 c 2.31,2.311 6.056141,2.310999 8.369141,0 L 92.710938,52.779297 c 2.310998,-2.311 2.310998,-6.060094 0,-8.371094 L 52.591797,4.2910156 c -1.155,-1.1555 -2.669094,-1.732422 -4.183594,-1.7324218 z"
   id="path4526" /><path
   style="fill:#f0ffff;fill-opacity:1"
   d="M 36,26.875 48.5,39.375 61,26.875 70.125,36 57.625,48.5 70.125,61 61,70.125 48.5,57.625 36,70.125 26.875,61 39.375,48.5 26.875,36 Z"
   id="path833" />
</g>
</svg>