<?xml version="1.0" encoding="UTF-8" standalone="no"?>
<svg
   xmlns:dc="http://purl.org/dc/elements/1.1/"
   xmlns:cc="http://creativecommons.org/ns#"
   xmlns:rdf="http://www.w3.org/1999/02/22-rdf-syntax-ns#"
   xmlns:svg="http://www.w3.org/2000/svg"
   xmlns="http://www.w3.org/2000/svg"
   xmlns:sodipodi="http://sodipodi.sourceforge.net/DTD/sodipodi-0.dtd"
   xmlns:inkscape="http://www.inkscape.org/namespaces/inkscape"
   id="Layer_1"
   style="enable-background:new 0 0 64 64;"
   version="1.1"
   viewBox="0 0 64 64"
   xml:space="preserve"
   sodipodi:docname="sc-actions-git-overview.svg"
   inkscape:version="0.92.3 (2405546, 2018-03-11)"><metadata
     id="metadata17"><rdf:RDF><cc:Work
         rdf:about=""><dc:format>image/svg+xml</dc:format><dc:type
           rdf:resource="http://purl.org/dc/dcmitype/StillImage" /></cc:Work></rdf:RDF></metadata><defs
     id="defs15" /><sodipodi:namedview
     pagecolor="#ffffff"
     bordercolor="#666666"
     borderopacity="1"
     objecttolerance="10"
     gridtolerance="10"
     guidetolerance="10"
     inkscape:pageopacity="0"
     inkscape:pageshadow="2"
     inkscape:window-width="1324"
     inkscape:window-height="760"
     id="namedview13"
     showgrid="false"
     inkscape:zoom="3.6875"
     inkscape:cx="2.1694915"
     inkscape:cy="32"
     inkscape:window-x="74"
     inkscape:window-y="0"
     inkscape:window-maximized="0"
     inkscape:current-layer="Layer_1" /><style
     type="text/css"
     id="style2">
	.st0{fill:#134563;}
</style><g
     id="g10"
     style="fill:#000000;fill-opacity:1"><g
       id="Icon-Share-Google"
       transform="translate(280.000000, 380.000000)"
       style="fill:#000000;fill-opacity:1"><path
         class="st0"
         d="M-264.2-339.9c-4.4,0-7.9-3.5-7.9-7.9c0-4.4,3.5-7.9,7.9-7.9c4.4,0,7.9,3.5,7.9,7.9     C-256.3-343.5-259.8-339.9-264.2-339.9L-264.2-339.9z M-264.2-352.8c-2.7,0-4.9,2.2-4.9,4.9c0,2.7,2.2,4.9,4.9,4.9     c2.7,0,4.9-2.2,4.9-4.9C-259.3-350.5-261.5-352.8-264.2-352.8L-264.2-352.8z"
         id="Fill-61"
         style="fill:#000000;fill-opacity:1" /><path
         class="st0"
         d="M-232.1-356c-4.4,0-7.9-3.5-7.9-7.9s3.5-7.9,7.9-7.9s7.9,3.5,7.9,7.9S-227.8-356-232.1-356     L-232.1-356z M-232.1-368.8c-2.7,0-4.9,2.2-4.9,4.9s2.2,4.9,4.9,4.9s4.9-2.2,4.9-4.9S-229.4-368.8-232.1-368.8L-232.1-368.8z"
         id="Fill-62"
         style="fill:#000000;fill-opacity:1" /><path
         class="st0"
         d="M-232.1-323.9c-4.4,0-7.9-3.5-7.9-7.9s3.5-7.9,7.9-7.9s7.9,3.5,7.9,7.9     S-227.8-323.9-232.1-323.9L-232.1-323.9z M-232.1-336.7c-2.7,0-4.9,2.2-4.9,4.9s2.2,4.9,4.9,4.9s4.9-2.2,4.9-4.9     S-229.4-336.7-232.1-336.7L-232.1-336.7z"
         id="Fill-63"
         style="fill:#000000;fill-opacity:1" /><polyline
         class="st0"
         id="Fill-64"
         points="-238.6,-333.2 -259.2,-343.5 -257.8,-346.4 -237.1,-336.1 -238.6,-333.2    "
         style="fill:#000000;fill-opacity:1" /><polyline
         class="st0"
         id="Fill-65"
         points="-257.8,-349.3 -259.2,-352.1 -238.6,-362.4 -237.1,-359.6 -257.8,-349.3    "
         style="fill:#000000;fill-opacity:1" /></g></g></svg>